<svg xmlns="http://www.w3.org/2000/svg" width="100" height="90" fill="none" viewBox="0 0 100 90"><title>Sheepdog.js</title><path fill="#F9F0E3" fill-opacity="0.5" d="m31.398 8.323-6.27-6.859A3.75 3.75 0 0 0 22.982.292L21.597.054a3.72 3.72 0 0 0-2.265.325L2.112 8.751a3.756 3.756 0 0 0-1.916 4.586l8.29 24.356A3.768 3.768 0 0 0 11.2 40.14a3.749 3.749 0 0 0 3.99-1.615L31.771 12.9a3.758 3.758 0 0 0-.38-4.57l.007-.008Z"/><path fill="#F9F0E3" d="M35.12 40.394a3.572 3.572 0 1 0-.002-7.143 3.572 3.572 0 0 0 .001 7.143ZM97.879 8.75 80.659.388a3.787 3.787 0 0 0-2.264-.325L77.009.3a3.801 3.801 0 0 0-2.145 1.172S54.255 23.887 54.263 23.958c-2.533 3.105-3.713 6.36-1.275 11.715 2.146 4.57 13.53 13.631 13.53 18.716 0 0 .056.753.135 1.917h-.047c0 5.845-2.581 10.566-6.904 12.617-3.214 1.529-6.817 1.173-9.778-.91v-2.52s.08-.055.111-.094l4.149-4.174c2.462-2.48.712-6.701-2.787-6.701H43.1c-3.492 0-5.25 4.221-2.787 6.7l4.07 4.088v2.907a7.686 7.686 0 0 1-8.02.918c-1.68-.792-2.55-1.988-2.55-2.756H28.27c0 3.113 2.193 6.09 5.716 7.762.776.364 1.647.673 2.573.895.008 3.913.34 9.037 3.531 12.253C41.873 89.09 44.248 90 47.145 90c9.628 0 11.092-9.394 11.314-14.875a15.42 15.42 0 0 0 3.618-1.204c2.352-1.117 4.363-2.772 5.954-4.831l17.663-18.954L73.446 24.71l1.465-1.458L84.8 38.524a3.749 3.749 0 0 0 3.99 1.616 3.768 3.768 0 0 0 2.716-2.447l8.289-24.356a3.747 3.747 0 0 0-1.916-4.586ZM44.026 83.37c-1.615-1.631-1.884-5.156-1.924-7.976h10.783c-.348 6.464-2.05 9.046-5.74 9.046-1.385 0-2.406-.349-3.119-1.07Z"/></svg>
