<svg width="175" height="148" viewBox="0 0 175 148" fill="none" xmlns="http://www.w3.org/2000/svg">
<g clip-path="url(#clip0_88_663)">
<path d="M69.7404 122.209C68.7856 122.209 67.8439 122.13 66.9022 121.974C63.3184 121.373 58.3874 119.298 55.1436 112.85C44.7585 93.5979 60.7286 74.7504 66.7452 67.6499C67.2945 66.9973 67.9616 66.2142 68.3017 65.7834C69.0472 63.0425 69.0995 56.2422 68.354 53.4882L77.1958 51.1127C78.3599 55.433 78.4253 64.6218 76.8296 69.164C76.3979 70.417 75.5608 71.3959 73.7428 73.5496C68.354 79.906 55.7584 94.7726 63.2399 108.569L63.3184 108.712C64.9664 112.028 67.0199 112.72 68.4194 112.954C72.801 113.685 79.0138 110.566 82.5192 107.133L85.5929 104.118L88.7974 107.003C93.5845 111.31 98.3062 113.346 102.439 112.889C106.756 112.406 109.319 109.469 110.261 108.164C116.853 98.0226 102.282 80.6761 96.8021 74.15C94.5916 71.5264 93.6891 70.4431 93.2444 69.164C91.6487 64.6087 91.7141 55.433 92.8782 51.1127C93.8199 47.6407 103.342 31.3776 106.023 27.9448L113.243 33.5573C110.745 36.7551 102.452 51.3215 101.681 53.5795C100.961 56.2553 101.014 63.0555 101.759 65.7965C102.152 66.3186 103.028 67.3497 103.813 68.2895C111.15 77.0084 128.324 97.4483 117.86 113.268L117.782 113.385C114.355 118.215 109.136 121.347 103.446 121.974C99.2872 122.43 93.0221 121.726 85.7629 116.335C81.342 119.585 75.417 122.195 69.7404 122.195V122.209Z" fill="black"/>
<path d="M85.475 109.417C86.1421 109.352 86.8091 109.248 87.4631 109.078C88.6926 108.765 89.8566 108.23 90.9292 107.551C91.2562 107.211 91.6486 106.872 92.1325 106.507C92.7211 106.076 93.2966 105.632 93.859 105.175C95.2847 103.74 96.5142 102.095 97.6259 100.424C97.6521 100.385 97.7044 100.385 97.7698 100.372C98.2799 99.0538 98.2537 97.5919 98.0445 95.7907C97.0766 87.4242 81.2372 89.9824 79.2884 90.7003C71.833 93.4413 70.7212 98.8972 76.3978 104.418C77.0779 105.071 77.9019 105.567 78.569 106.233C79.4061 107.081 80.1908 107.969 80.9887 108.856C81.7081 109.039 82.4275 109.195 83.1599 109.287C83.6308 109.352 84.0886 109.391 84.5594 109.417C84.6379 109.417 84.7164 109.417 84.8079 109.417C85.0303 109.417 85.2526 109.391 85.4881 109.378L85.475 109.417Z" fill="black"/>
<path d="M90.1183 106.546H80.9626V119.141H90.1183V106.546Z" fill="black"/>
<path d="M107.75 8.99316H64.1292V18.1298H107.75V8.99316Z" fill="black"/>
<path d="M85.8543 141.905C79.236 141.905 68.1184 138.589 68.1184 116.414H77.2741C77.2741 127.26 80.1647 132.768 85.8543 132.768C92.5903 132.768 94.4345 129.257 94.4345 116.414H103.59C103.59 124.689 103.59 141.905 85.8543 141.905Z" fill="black"/>
<path d="M71.5061 63.9432C71.5061 67.0366 68.9948 69.5426 65.8949 69.5426C62.7951 69.5426 56.7654 67.0366 56.7654 63.9432C56.7654 60.8498 62.7951 58.3438 65.8949 58.3438C68.9948 58.3438 71.5061 60.8498 71.5061 63.9432Z" fill="#F9F0E3"/>
<path d="M99.0776 62.638C99.0776 65.7314 101.589 68.2374 104.689 68.2374C107.789 68.2374 113.818 65.7314 113.818 62.638C113.818 59.5446 107.789 57.0386 104.689 57.0386C101.589 57.0386 99.0776 59.5446 99.0776 62.638Z" fill="#F9F0E3"/>
<path d="M90.1183 106.546H80.9626V119.141H90.1183V106.546Z" fill="black"/>
<path d="M99.104 117.653C99.104 126.124 98.4893 143.445 85.3313 143.445C73.9389 143.445 72.801 126.137 72.801 117.653H99.1171H99.104Z" fill="#FF1500"/>
<path d="M166.725 43.0073C173.344 30.934 174.573 28.689 174.22 27.0574C173.958 24.4731 170.675 22.1106 142.777 3.40666C136.629 -0.717865 128.769 -1.08333 122.255 2.45384L121.692 2.75405L114.224 10.0764C112.785 9.39767 111.203 9.0061 109.555 9.0061H60.0615C57.9034 9.0061 55.8499 9.67176 54.1103 10.8334L46.0272 3.3675C41.5932 -0.730917 34.8311 -1.12249 29.9524 2.44079C3.38777 21.7712 0.300988 24.2773 0.0393961 26.7311C-0.0129221 27.0183 -0.0260017 27.3315 0.0393961 27.7361C0.314067 29.7462 2.19753 33.8577 7.96562 46.5184C13.6814 59.0617 18.2985 68.1852 21.673 73.628C22.1569 74.4112 22.6278 75.116 23.0856 75.7947L5.36278 102.852L10.9478 104.745C11.6279 104.98 16.4804 106.611 20.1165 107.616L26.5778 127.325L35.2758 124.48L27.1795 99.7979L24.5243 99.3019C23.5434 99.1192 21.6076 98.5579 19.528 97.9183L30.5279 81.12H30.5933L30.9857 81.0548C31.4042 80.9895 31.7704 80.9373 32.0974 80.8981C36.0475 80.363 37.6039 79.2405 40.089 75.1943C41.8548 72.3097 48.0545 58.2524 52.5146 47.4321C54.5027 42.6288 56.0854 38.6609 57.341 35.3587C63.0437 44.3778 67.6215 51.9612 68.3932 53.6841C69.0864 56.5426 69.021 63.1209 68.3017 65.8097C67.9747 66.2404 67.3076 67.0236 66.7452 67.6762C60.7286 74.7766 44.7584 93.6111 55.1436 112.876C58.3743 119.324 63.3184 121.399 66.9022 122C67.373 122.078 67.8439 122.13 68.3147 122.17C69.4658 144.528 79.3016 148.013 85.3182 148.013C96.5928 148.013 102.701 139.242 103.551 121.974C109.188 121.321 114.368 118.202 117.782 113.398L117.86 113.281C128.311 97.4615 111.137 77.0216 103.813 68.3027C103.028 67.376 102.152 66.3318 101.759 65.8097C101.027 63.134 100.961 56.5687 101.655 53.6972C102.492 51.8437 107.671 43.1901 113.622 33.6358C119.639 49.6771 128.271 72.6491 129.252 74.6722C130.979 78.2485 133.817 80.2064 138.46 81.0156L138.761 81.0678C142.188 86.2887 148.401 94.1071 152.299 98.8973L144.516 103.4L133.909 124.871L142.123 128.918L151.501 109.926L166.255 101.403L162.775 97.2396C162.658 97.0961 151.318 83.5347 146.491 76.1863C148.192 74.0848 150.232 71.135 152.835 66.9844C157.596 59.4271 163.011 49.7945 166.712 43.0334L166.725 43.0073ZM32.2936 70.4302C31.862 71.135 31.5873 71.5396 31.4173 71.7615C26.8787 66.3057 15.0547 40.5143 10.0583 28.7151C13.4198 26.0002 21.2414 20.0744 35.3281 9.80229C36.6884 8.82336 38.5587 8.92778 39.7882 10.0633L49.3625 18.8997C49.1924 21.1708 49.7548 23.4811 51.0366 25.465C51.0759 25.5173 51.102 25.5695 51.1413 25.6217C46.7989 38.3085 34.3602 66.9975 32.2805 70.4172L32.2936 70.4302ZM85.3313 138.863C84.2064 138.863 81.2243 138.863 79.1577 132.337C78.3075 129.648 77.7451 126.203 77.5097 122.209H94.4216C93.6368 137.023 88.9412 138.863 85.3443 138.863H85.3313ZM92.8782 51.1259C91.7141 55.4462 91.6487 64.635 93.2444 69.1772C93.6891 70.4563 94.6047 71.5396 96.8021 74.1632C102.295 80.7024 116.866 98.0358 110.261 108.177C109.319 109.483 106.756 112.419 102.439 112.902C98.6593 113.32 94.3954 111.636 90.0399 108.06C90.3407 107.903 90.6416 107.734 90.9293 107.551C91.2563 107.212 91.6487 106.872 92.1326 106.507C92.7212 106.076 93.2967 105.632 93.8591 105.175C95.2848 103.74 96.5143 102.095 97.6261 100.424C97.6522 100.385 97.7045 100.385 97.7699 100.372C98.28 99.0539 98.2408 97.592 98.0446 95.7908C97.0767 87.4243 81.2374 89.9825 79.2885 90.7004C71.8332 93.4414 70.7214 98.8973 76.3979 104.418C77.065 105.071 77.9021 105.567 78.5691 106.233C79.3408 107.003 80.0602 107.825 80.7927 108.647C77.2219 111.414 72.1732 113.581 68.4325 112.968C67.033 112.733 64.9664 112.041 63.3314 108.726L63.253 108.582C55.7714 94.7858 68.3671 79.9192 73.7558 73.5628C75.5739 71.4091 76.411 70.4302 76.8426 69.1772C78.4383 64.6219 78.3729 55.4462 77.2089 51.1259C76.4502 48.3457 66.6013 32.7482 61.1341 24.2381C62.1281 20.453 61.9058 19.1216 61.4349 18.1297H107.841L108.377 19.5654C108.678 20.3746 109.097 21.4841 109.594 22.8285C105.369 29.5243 93.663 48.2282 92.8782 51.1259ZM163.9 29.0153C157.727 40.7754 143.483 66.2274 138.447 71.5788C137.833 71.3308 137.689 71.0437 137.532 70.7043C136.59 68.6812 127.147 43.5947 119.665 23.5725C120.437 21.5102 120.581 19.2652 120.044 17.1377L127.147 10.1808C130.547 8.56232 134.524 8.84947 137.663 10.9639" fill="#F9F0E3"/>
</g>
<defs>
<clipPath id="clip0_88_663">
<rect width="174.272" height="148" fill="white"/>
</clipPath>
</defs>
</svg>